<?xml version="1.0" standalone="no"?>
<!DOCTYPE svg PUBLIC "-//W3C//DTD SVG 20010904//EN"
 "http://www.w3.org/TR/2001/REC-SVG-20010904/DTD/svg10.dtd">
<svg version="1.0" xmlns="http://www.w3.org/2000/svg"
 width="1024.000000pt" height="1024.000000pt" viewBox="0 0 1024.000000 1024.000000"
 preserveAspectRatio="xMidYMid meet">

<g transform="translate(0.000000,1024.000000) scale(0.100000,-0.100000)"
fill="#000000" stroke="none">
<path d="M6077 8610 c-278 -26 -536 -120 -782 -285 -143 -95 -191 -140 -751
-705 -569 -574 -606 -614 -704 -762 -118 -177 -186 -349 -226 -571 -25 -132
-25 -432 0 -545 37 -171 106 -328 201 -453 61 -81 858 -903 901 -930 38 -23
123 -26 162 -5 45 24 260 248 277 288 20 49 19 115 -3 155 -9 17 -143 161
-298 320 -505 518 -518 533 -569 636 -103 209 -101 434 5 653 49 101 61 114
745 805 279 282 533 530 575 562 92 68 235 138 350 169 74 20 107 23 260 22
161 0 182 -2 263 -27 573 -176 871 -791 666 -1375 -65 -184 -190 -381 -328
-517 l-61 -59 0 -758 c0 -417 -3 -758 -7 -758 -5 0 -21 31 -37 68 -76 175
-369 726 -522 979 -74 122 -156 242 -218 318 -96 117 -562 591 -599 609 -43
20 -97 21 -140 2 -40 -17 -292 -271 -306 -309 -16 -41 -13 -103 5 -140 9 -18
155 -171 323 -342 317 -320 365 -375 431 -498 129 -239 115 -558 -33 -790 -51
-80 -91 -122 -590 -630 -382 -389 -463 -467 -540 -517 -168 -111 -333 -157
-527 -147 -332 17 -608 201 -751 502 -92 193 -83 -4 -89 1955 l-5 1735 -308 0
-307 0 0 -1710 c0 -1854 -1 -1802 55 -2013 91 -340 317 -658 606 -851 269
-180 536 -263 849 -264 300 -1 548 79 840 270 107 71 147 108 592 554 262 264
511 521 554 571 75 90 214 290 214 309 0 74 167 -303 366 -827 47 -126 194
-541 194 -551 0 -2 126 -3 280 -3 l280 0 0 1468 0 1469 46 59 c408 520 535
1140 352 1724 -16 52 -60 158 -98 235 -291 592 -949 966 -1593 905z"/>
</g>
</svg>
