<svg xmlns="http://www.w3.org/2000/svg" xmlns:xlink="http://www.w3.org/1999/xlink" width="3780" zoomAndPan="magnify" viewBox="0 0 2835 1417.499962" height="1890" preserveAspectRatio="xMidYMid meet" version="1.0"><defs><g/><clipPath id="700a4456cf"><path d="M 0.5 493.75 L 586.792969 493.75 L 586.792969 911.886719 L 0.5 911.886719 Z M 0.5 493.75 " clip-rule="nonzero"/></clipPath><clipPath id="2e5cad39a7"><path d="M 104.207031 572.066406 L 317.324219 572.066406 L 317.324219 777.988281 L 104.207031 777.988281 Z M 104.207031 572.066406 " clip-rule="nonzero"/></clipPath><clipPath id="bb672776ca"><path d="M 201.28125 778.226562 C 200.585938 778.226562 200.125 777.996094 199.660156 777.53125 C 199.199219 777.070312 198.964844 776.605469 198.964844 775.910156 L 198.964844 736.53125 C 198.964844 735.835938 199.199219 735.375 199.660156 734.910156 L 259.425781 674.683594 L 199.429688 614.921875 C 198.964844 614.457031 198.734375 613.992188 198.734375 613.296875 L 198.734375 583.878906 C 198.734375 583.183594 199.199219 582.257812 199.890625 582.027344 L 214.71875 572.53125 C 215.414062 572.066406 216.105469 572.066406 216.800781 572.296875 C 217.035156 572.296875 217.496094 572.53125 217.730469 572.761719 L 316.40625 673.292969 C 317.335938 674.21875 317.335938 675.609375 316.40625 676.535156 L 217.960938 777.070312 C 217.496094 777.53125 217.035156 777.765625 216.339844 777.765625 Z M 203.597656 737.457031 L 203.597656 773.59375 L 215.414062 773.132812 L 312.007812 674.914062 L 215.875 577.164062 L 203.597656 585.039062 L 203.597656 612.140625 L 264.058594 673.0625 C 264.984375 673.988281 264.984375 675.378906 264.058594 676.304688 Z M 106.539062 778.226562 C 105.847656 778.226562 105.382812 777.996094 104.917969 777.53125 C 104.457031 777.070312 104.222656 776.605469 104.222656 775.910156 L 104.222656 736.53125 C 104.222656 735.835938 104.457031 735.375 104.917969 734.910156 L 164.683594 674.683594 L 104.917969 614.921875 C 104.457031 614.457031 104.222656 613.992188 104.222656 613.296875 L 104.222656 583.878906 C 104.222656 583.183594 104.6875 582.257812 105.382812 582.027344 L 120.207031 572.53125 C 120.902344 572.066406 121.597656 572.066406 122.292969 572.296875 C 122.523438 572.296875 122.988281 572.53125 123.21875 572.761719 L 221.898438 673.292969 C 222.824219 674.21875 222.824219 675.609375 221.898438 676.535156 L 123.21875 777.070312 C 122.757812 777.53125 122.292969 777.765625 121.597656 777.765625 Z M 108.855469 737.457031 L 108.855469 773.59375 L 120.671875 773.132812 L 217.265625 674.914062 L 121.132812 577.164062 L 108.855469 585.039062 L 108.855469 612.140625 L 169.546875 672.832031 C 170.472656 673.757812 170.472656 675.148438 169.546875 676.074219 Z M 108.855469 737.457031 " clip-rule="nonzero"/></clipPath><clipPath id="6bac217fff"><path d="M 296.960938 572.066406 L 510 572.066406 L 510 777.988281 L 296.960938 777.988281 Z M 296.960938 572.066406 " clip-rule="nonzero"/></clipPath><clipPath id="695116938f"><path d="M 394.035156 778.226562 C 393.34375 778.226562 392.878906 777.996094 392.414062 777.53125 C 391.953125 777.070312 391.71875 776.605469 391.71875 775.910156 L 391.71875 736.53125 C 391.71875 735.835938 391.953125 735.375 392.414062 734.910156 L 452.179688 674.683594 L 392.183594 614.921875 C 391.71875 614.457031 391.488281 613.992188 391.488281 613.296875 L 391.488281 583.878906 C 391.488281 583.183594 391.953125 582.257812 392.648438 582.027344 L 407.472656 572.53125 C 408.167969 572.066406 408.863281 572.066406 409.558594 572.296875 C 409.789062 572.296875 410.25 572.53125 410.484375 572.761719 L 509.164062 673.292969 C 510.089844 674.21875 510.089844 675.609375 509.164062 676.535156 L 410.714844 777.070312 C 410.25 777.53125 409.789062 777.765625 409.09375 777.765625 Z M 396.351562 737.457031 L 396.351562 773.59375 L 408.167969 773.132812 L 504.761719 674.914062 L 408.628906 577.164062 L 396.351562 585.039062 L 396.351562 612.140625 L 456.8125 673.0625 C 457.738281 673.988281 457.738281 675.378906 456.8125 676.304688 Z M 299.296875 778.226562 C 298.601562 778.226562 298.136719 777.996094 297.675781 777.53125 C 297.210938 777.070312 296.980469 776.605469 296.980469 775.910156 L 296.980469 736.53125 C 296.980469 735.835938 297.210938 735.375 297.675781 734.910156 L 357.4375 674.683594 L 297.675781 614.921875 C 297.210938 614.457031 296.980469 613.992188 296.980469 613.296875 L 296.980469 583.878906 C 296.980469 583.183594 297.441406 582.257812 298.136719 582.027344 L 312.960938 572.53125 C 313.65625 572.066406 314.351562 572.066406 315.046875 572.296875 C 315.277344 572.296875 315.742188 572.53125 315.972656 572.761719 L 414.652344 673.292969 C 415.578125 674.21875 415.578125 675.609375 414.652344 676.535156 L 315.972656 777.070312 C 315.511719 777.53125 315.046875 777.765625 314.351562 777.765625 Z M 301.613281 737.457031 L 301.613281 773.59375 L 313.425781 773.132812 L 410.019531 674.914062 L 313.890625 577.164062 L 301.613281 585.039062 L 301.613281 612.140625 L 362.300781 672.832031 C 363.226562 673.757812 363.226562 675.148438 362.300781 676.074219 Z M 301.613281 737.457031 " clip-rule="nonzero"/></clipPath></defs><g fill="#6b29ff" fill-opacity="1"><g transform="translate(637.224376, 819.874705)"><g><path d="M 19.09375 0 L 19.09375 -245.828125 L 170.140625 -245.828125 L 163.421875 -199.5 L 84.53125 -199.5 L 84.53125 -140.421875 L 153.875 -140.421875 L 153.875 -94.09375 L 84.53125 -94.09375 L 84.53125 0 Z M 19.09375 0 "/></g></g></g><g fill="#6b29ff" fill-opacity="1"><g transform="translate(809.129488, 819.874705)"><g><path d="M 189.234375 -97.265625 C 189.234375 -95.859375 188.878906 -88.785156 188.171875 -76.046875 L 72.859375 -76.046875 C 74.515625 -61.660156 78.582031 -51.816406 85.0625 -46.515625 C 91.550781 -41.210938 100.8125 -38.5625 112.84375 -38.5625 C 119.914062 -38.5625 126.925781 -39.914062 133.875 -42.625 C 140.832031 -45.332031 148.441406 -49.519531 156.703125 -55.1875 L 182.171875 -20.515625 C 172.265625 -12.265625 160.941406 -5.722656 148.203125 -0.890625 C 135.472656 3.941406 121.679688 6.359375 106.828125 6.359375 C 74.753906 6.359375 50.40625 -2.65625 33.78125 -20.6875 C 17.15625 -38.726562 8.84375 -62.957031 8.84375 -93.375 C 8.84375 -112.476562 12.320312 -129.691406 19.28125 -145.015625 C 26.238281 -160.347656 36.554688 -172.492188 50.234375 -181.453125 C 63.910156 -190.421875 80.414062 -194.90625 99.75 -194.90625 C 127.34375 -194.90625 149.15625 -186.351562 165.1875 -169.25 C 181.21875 -152.15625 189.234375 -128.160156 189.234375 -97.265625 Z M 127.34375 -114.953125 C 127.101562 -127.453125 124.976562 -137.117188 120.96875 -143.953125 C 116.957031 -150.796875 110.238281 -154.21875 100.8125 -154.21875 C 92.082031 -154.21875 85.476562 -151.148438 81 -145.015625 C 76.519531 -138.890625 73.691406 -128.164062 72.515625 -112.84375 L 127.34375 -112.84375 Z M 127.34375 -114.953125 "/></g></g></g><g fill="#6b29ff" fill-opacity="1"><g transform="translate(1005.440888, 819.874705)"><g><path d="M 189.234375 -97.265625 C 189.234375 -95.859375 188.878906 -88.785156 188.171875 -76.046875 L 72.859375 -76.046875 C 74.515625 -61.660156 78.582031 -51.816406 85.0625 -46.515625 C 91.550781 -41.210938 100.8125 -38.5625 112.84375 -38.5625 C 119.914062 -38.5625 126.925781 -39.914062 133.875 -42.625 C 140.832031 -45.332031 148.441406 -49.519531 156.703125 -55.1875 L 182.171875 -20.515625 C 172.265625 -12.265625 160.941406 -5.722656 148.203125 -0.890625 C 135.472656 3.941406 121.679688 6.359375 106.828125 6.359375 C 74.753906 6.359375 50.40625 -2.65625 33.78125 -20.6875 C 17.15625 -38.726562 8.84375 -62.957031 8.84375 -93.375 C 8.84375 -112.476562 12.320312 -129.691406 19.28125 -145.015625 C 26.238281 -160.347656 36.554688 -172.492188 50.234375 -181.453125 C 63.910156 -190.421875 80.414062 -194.90625 99.75 -194.90625 C 127.34375 -194.90625 149.15625 -186.351562 165.1875 -169.25 C 181.21875 -152.15625 189.234375 -128.160156 189.234375 -97.265625 Z M 127.34375 -114.953125 C 127.101562 -127.453125 124.976562 -137.117188 120.96875 -143.953125 C 116.957031 -150.796875 110.238281 -154.21875 100.8125 -154.21875 C 92.082031 -154.21875 85.476562 -151.148438 81 -145.015625 C 76.519531 -138.890625 73.691406 -128.164062 72.515625 -112.84375 L 127.34375 -112.84375 Z M 127.34375 -114.953125 "/></g></g></g><g fill="#6b29ff" fill-opacity="1"><g transform="translate(1201.752289, 819.874705)"><g><path d="M 193.84375 -262.8125 L 193.84375 0 L 137.953125 0 L 135.46875 -20.875 C 129.8125 -12.851562 122.5625 -6.304688 113.71875 -1.234375 C 104.875 3.828125 94.320312 6.359375 82.0625 6.359375 C 58.476562 6.359375 40.671875 -2.597656 28.640625 -20.515625 C 16.617188 -38.429688 10.609375 -63.191406 10.609375 -94.796875 C 10.609375 -114.128906 13.847656 -131.398438 20.328125 -146.609375 C 26.816406 -161.828125 35.957031 -173.679688 47.75 -182.171875 C 59.539062 -190.660156 73.101562 -194.90625 88.4375 -194.90625 C 105.40625 -194.90625 119.550781 -189.476562 130.875 -178.625 L 130.875 -269.1875 Z M 102.578125 -38.90625 C 113.898438 -38.90625 123.332031 -45.15625 130.875 -57.65625 L 130.875 -136.53125 C 126.863281 -141.007812 122.972656 -144.3125 119.203125 -146.4375 C 115.429688 -148.5625 111.066406 -149.625 106.109375 -149.625 C 96.679688 -149.625 89.195312 -145.203125 83.65625 -136.359375 C 78.113281 -127.515625 75.34375 -113.539062 75.34375 -94.4375 C 75.34375 -73.21875 77.695312 -58.65625 82.40625 -50.75 C 87.125 -42.851562 93.847656 -38.90625 102.578125 -38.90625 Z M 102.578125 -38.90625 "/></g></g></g><g fill="#6b29ff" fill-opacity="1"><g transform="translate(1413.980782, 819.874705)"><g/></g></g><g fill="#6b29ff" fill-opacity="1"><g transform="translate(1494.627676, 819.874705)"><g><path d="M 19.09375 0 L 19.09375 -245.828125 L 170.140625 -245.828125 L 163.421875 -199.5 L 84.53125 -199.5 L 84.53125 -140.421875 L 153.875 -140.421875 L 153.875 -94.09375 L 84.53125 -94.09375 L 84.53125 0 Z M 19.09375 0 "/></g></g></g><g fill="#6b29ff" fill-opacity="1"><g transform="translate(1666.532788, 819.874705)"><g><path d="M 103.28125 -194.90625 C 132.757812 -194.90625 155.867188 -186.0625 172.609375 -168.375 C 189.359375 -150.6875 197.734375 -125.925781 197.734375 -94.09375 C 197.734375 -73.8125 193.957031 -56.125 186.40625 -41.03125 C 178.863281 -25.9375 167.957031 -14.265625 153.6875 -6.015625 C 139.425781 2.234375 122.625 6.359375 103.28125 6.359375 C 73.8125 6.359375 50.703125 -2.476562 33.953125 -20.15625 C 17.210938 -37.84375 8.84375 -62.601562 8.84375 -94.4375 C 8.84375 -114.71875 12.613281 -132.40625 20.15625 -147.5 C 27.707031 -162.59375 38.613281 -174.265625 52.875 -182.515625 C 67.144531 -190.773438 83.945312 -194.90625 103.28125 -194.90625 Z M 103.28125 -149.265625 C 93.144531 -149.265625 85.660156 -144.84375 80.828125 -136 C 75.992188 -127.15625 73.578125 -113.300781 73.578125 -94.4375 C 73.578125 -74.863281 75.992188 -60.773438 80.828125 -52.171875 C 85.660156 -43.566406 93.144531 -39.265625 103.28125 -39.265625 C 113.425781 -39.265625 120.914062 -43.6875 125.75 -52.53125 C 130.582031 -61.375 133 -75.226562 133 -94.09375 C 133 -113.425781 130.582031 -127.453125 125.75 -136.171875 C 120.914062 -144.898438 113.425781 -149.265625 103.28125 -149.265625 Z M 103.28125 -149.265625 "/></g></g></g><g fill="#6b29ff" fill-opacity="1"><g transform="translate(1873.101861, 819.874705)"><g><path d="M 126.625 -194.1875 C 132.757812 -194.1875 139.128906 -193.128906 145.734375 -191.015625 L 135.46875 -130.171875 C 129.34375 -132.054688 123.6875 -133 118.5 -133 C 107.882812 -133 99.804688 -129.398438 94.265625 -122.203125 C 88.722656 -115.015625 84.421875 -104.109375 81.359375 -89.484375 L 81.359375 0 L 18.390625 0 L 18.390625 -188.53125 L 73.21875 -188.53125 L 78.875 -152.8125 C 82.644531 -165.300781 88.953125 -175.316406 97.796875 -182.859375 C 106.640625 -190.410156 116.25 -194.1875 126.625 -194.1875 Z M 126.625 -194.1875 "/></g></g></g><g fill="#6b29ff" fill-opacity="1"><g transform="translate(2016.356155, 819.874705)"><g><path d="M 268.46875 -188.53125 L 230.265625 0 L 156.703125 0 L 134.0625 -132.296875 L 111.78125 0 L 38.90625 0 L 0 -188.53125 L 63.3125 -188.53125 L 78.875 -47.75 L 106.109375 -188.53125 L 165.890625 -188.53125 L 188.53125 -47.75 L 207.984375 -188.53125 Z M 268.46875 -188.53125 "/></g></g></g><g fill="#6b29ff" fill-opacity="1"><g transform="translate(2284.471462, 819.874705)"><g><path d="M 174.734375 -58.015625 C 174.734375 -51.171875 175.617188 -46.097656 177.390625 -42.796875 C 179.160156 -39.492188 182.285156 -37.019531 186.765625 -35.375 L 174.03125 5.3125 C 162 4.363281 152.148438 1.882812 144.484375 -2.125 C 136.828125 -6.132812 130.640625 -12.5 125.921875 -21.21875 C 113.898438 -2.832031 94.914062 6.359375 68.96875 6.359375 C 50.34375 6.359375 35.425781 0.878906 24.21875 -10.078125 C 13.019531 -21.046875 7.421875 -35.253906 7.421875 -52.703125 C 7.421875 -73.453125 15.082031 -89.367188 30.40625 -100.453125 C 45.738281 -111.535156 67.910156 -117.078125 96.921875 -117.078125 L 113.1875 -117.078125 L 113.1875 -123.453125 C 113.1875 -133.585938 111.0625 -140.484375 106.8125 -144.140625 C 102.570312 -147.796875 94.910156 -149.625 83.828125 -149.625 C 77.929688 -149.625 70.5625 -148.738281 61.71875 -146.96875 C 52.875 -145.195312 43.859375 -142.78125 34.671875 -139.71875 L 20.875 -180.390625 C 32.1875 -185.109375 44.328125 -188.707031 57.296875 -191.1875 C 70.265625 -193.664062 82.289062 -194.90625 93.375 -194.90625 C 121.675781 -194.90625 142.3125 -189.300781 155.28125 -178.09375 C 168.25 -166.894531 174.734375 -149.738281 174.734375 -126.625 Z M 88.078125 -37.84375 C 93.265625 -37.84375 98.039062 -39.195312 102.40625 -41.90625 C 106.769531 -44.625 110.363281 -48.34375 113.1875 -53.0625 L 113.1875 -83.484375 L 102.578125 -83.484375 C 91.253906 -83.484375 82.878906 -81.414062 77.453125 -77.28125 C 72.035156 -73.15625 69.328125 -66.96875 69.328125 -58.71875 C 69.328125 -52.351562 70.976562 -47.28125 74.28125 -43.5 C 77.582031 -39.726562 82.179688 -37.84375 88.078125 -37.84375 Z M 88.078125 -37.84375 "/></g></g></g><g fill="#6b29ff" fill-opacity="1"><g transform="translate(2479.014319, 819.874705)"><g><path d="M 126.625 -194.1875 C 132.757812 -194.1875 139.128906 -193.128906 145.734375 -191.015625 L 135.46875 -130.171875 C 129.34375 -132.054688 123.6875 -133 118.5 -133 C 107.882812 -133 99.804688 -129.398438 94.265625 -122.203125 C 88.722656 -115.015625 84.421875 -104.109375 81.359375 -89.484375 L 81.359375 0 L 18.390625 0 L 18.390625 -188.53125 L 73.21875 -188.53125 L 78.875 -152.8125 C 82.644531 -165.300781 88.953125 -175.316406 97.796875 -182.859375 C 106.640625 -190.410156 116.25 -194.1875 126.625 -194.1875 Z M 126.625 -194.1875 "/></g></g></g><g fill="#6b29ff" fill-opacity="1"><g transform="translate(2622.268614, 819.874705)"><g><path d="M 193.84375 -262.8125 L 193.84375 0 L 137.953125 0 L 135.46875 -20.875 C 129.8125 -12.851562 122.5625 -6.304688 113.71875 -1.234375 C 104.875 3.828125 94.320312 6.359375 82.0625 6.359375 C 58.476562 6.359375 40.671875 -2.597656 28.640625 -20.515625 C 16.617188 -38.429688 10.609375 -63.191406 10.609375 -94.796875 C 10.609375 -114.128906 13.847656 -131.398438 20.328125 -146.609375 C 26.816406 -161.828125 35.957031 -173.679688 47.75 -182.171875 C 59.539062 -190.660156 73.101562 -194.90625 88.4375 -194.90625 C 105.40625 -194.90625 119.550781 -189.476562 130.875 -178.625 L 130.875 -269.1875 Z M 102.578125 -38.90625 C 113.898438 -38.90625 123.332031 -45.15625 130.875 -57.65625 L 130.875 -136.53125 C 126.863281 -141.007812 122.972656 -144.3125 119.203125 -146.4375 C 115.429688 -148.5625 111.066406 -149.625 106.109375 -149.625 C 96.679688 -149.625 89.195312 -145.203125 83.65625 -136.359375 C 78.113281 -127.515625 75.34375 -113.539062 75.34375 -94.4375 C 75.34375 -73.21875 77.695312 -58.65625 82.40625 -50.75 C 87.125 -42.851562 93.847656 -38.90625 102.578125 -38.90625 Z M 102.578125 -38.90625 "/></g></g></g><path fill="#6b29ff" d="M 74.339844 498.5625 L 514.957031 498.5625 C 551.492188 498.5625 581.109375 528.179688 581.109375 564.714844 L 581.109375 782.40625 C 581.109375 818.941406 551.492188 848.558594 514.957031 848.558594 L 248.699219 848.558594 C 246.910156 848.558594 245.167969 849.167969 243.769531 850.289062 L 177.605469 903.125 L 184.609375 857.667969 C 185.347656 852.878906 181.640625 848.5625 176.796875 848.5625 L 74.339844 848.5625 C 37.804688 848.5625 8.1875 818.945312 8.1875 782.410156 L 8.1875 564.714844 C 8.191406 528.179688 37.804688 498.5625 74.339844 498.5625 Z M 74.339844 498.5625 " fill-opacity="1" fill-rule="nonzero"/><g clip-path="url(#700a4456cf)"><path fill="#6b29ff" d="M 513.859375 493.839844 L 73.242188 493.839844 C 33.132812 493.839844 0.5 526.46875 0.5 566.574219 L 0.5 784.273438 C 0.5 824.382812 33.132812 857.007812 73.242188 857.007812 L 175.691406 857.007812 C 176.191406 857.007812 176.511719 857.261719 176.691406 857.46875 C 176.871094 857.675781 177.070312 858.03125 176.996094 858.523438 L 169.996094 903.984375 C 169.578125 906.683594 170.835938 909.316406 173.207031 910.6875 C 174.210938 911.265625 175.351562 911.570312 176.507812 911.570312 C 177.996094 911.570312 179.453125 911.058594 180.621094 910.132812 L 246.78125 857.292969 C 247.015625 857.109375 247.308594 857.003906 247.605469 857.003906 L 513.867188 857.003906 C 553.980469 857.003906 586.609375 824.371094 586.609375 784.265625 L 586.609375 566.574219 C 586.609375 526.464844 553.980469 493.839844 513.867188 493.839844 Z M 190.011719 860.535156 C 190.65625 856.351562 189.445312 852.105469 186.6875 848.890625 C 183.929688 845.679688 179.921875 843.832031 175.6875 843.832031 L 73.242188 843.832031 C 40.398438 843.832031 13.675781 817.113281 13.675781 784.265625 L 13.675781 566.574219 C 13.675781 533.730469 40.398438 507.011719 73.242188 507.011719 L 513.859375 507.011719 C 546.703125 507.011719 573.421875 533.730469 573.421875 566.574219 L 573.421875 784.273438 C 573.421875 817.117188 546.703125 843.835938 513.859375 843.835938 L 247.597656 843.835938 C 244.324219 843.835938 241.113281 844.964844 238.554688 847.003906 L 185.582031 889.308594 L 190.015625 860.539062 Z M 190.011719 860.535156 " fill-opacity="1" fill-rule="nonzero"/></g><g clip-path="url(#2e5cad39a7)"><g clip-path="url(#bb672776ca)"><path fill="#ffffff" d="M 104.222656 572.066406 L 104.222656 777.988281 L 317.324219 777.988281 L 317.324219 572.066406 Z M 104.222656 572.066406 " fill-opacity="1" fill-rule="nonzero"/></g></g><g clip-path="url(#6bac217fff)"><g clip-path="url(#695116938f)"><path fill="#ffffff" d="M 296.980469 572.066406 L 296.980469 777.988281 L 510.078125 777.988281 L 510.078125 572.066406 Z M 296.980469 572.066406 " fill-opacity="1" fill-rule="nonzero"/></g></g></svg>